<svg width="85" height="16" viewBox="0 0 85 16" fill="none" xmlns="http://www.w3.org/2000/svg">
<path d="M2.47151 13.3513H9.13385V15.7201H0V0.646029H9.02639V3.0148H2.47151V6.93405H8.48911V9.28129H2.47151V13.3513Z" fill="black"/>
<path d="M16.8981 4.67295C18.1303 4.67295 19.1261 5.06774 19.8854 5.85733C20.6448 6.64693 21.0245 7.73082 21.0245 9.10902V15.7201H18.7034V9.34589C18.7034 8.54195 18.4885 7.92463 18.0587 7.49394C17.6288 7.06326 17.0414 6.84791 16.2964 6.84791C15.4797 6.84791 14.8206 7.10633 14.3192 7.62315C13.8177 8.12562 13.567 8.90085 13.567 9.94886V15.7201H11.2459V4.95289H13.567V6.33109C14.269 5.22566 15.3794 4.67295 16.8981 4.67295Z" fill="black"/>
<path d="M28.5957 16C26.9767 16 25.6227 15.4545 24.5338 14.3634C23.4592 13.2723 22.9219 11.93 22.9219 10.3365C22.9219 8.72858 23.4592 7.38627 24.5338 6.30956C25.6227 5.21848 26.9767 4.67295 28.5957 4.67295C29.6416 4.67295 30.5944 4.92418 31.454 5.42665C32.3137 5.92912 32.9584 6.60386 33.3883 7.45088L31.3896 8.61373C31.146 8.0969 30.7735 7.69493 30.272 7.40781C29.7849 7.10633 29.2189 6.95559 28.5742 6.95559C27.6286 6.95559 26.8334 7.2786 26.1886 7.92463C25.5582 8.57066 25.243 9.37461 25.243 10.3365C25.243 11.2983 25.5582 12.1023 26.1886 12.7483C26.8334 13.3943 27.6286 13.7174 28.5742 13.7174C29.2046 13.7174 29.7705 13.5666 30.272 13.2651C30.7878 12.9637 31.1746 12.5617 31.4325 12.0592L33.4312 13.2005C32.9728 14.0619 32.3137 14.7438 31.454 15.2463C30.5944 15.7488 29.6416 16 28.5957 16Z" fill="black"/>
<path d="M35.1089 15.7201V0H37.43V15.7201H35.1089Z" fill="black"/>
<path d="M48.6356 4.95289H50.9566V15.7201H48.6356V14.1696C47.7616 15.3899 46.5079 16 44.8746 16C43.3988 16 42.138 15.4545 41.0921 14.3634C40.0462 13.258 39.5232 11.9157 39.5232 10.3365C39.5232 8.74293 40.0462 7.40063 41.0921 6.30956C42.138 5.21848 43.3988 4.67295 44.8746 4.67295C46.5079 4.67295 47.7616 5.27591 48.6356 6.48183V4.95289ZM42.8114 12.8129C43.4561 13.459 44.2657 13.782 45.2399 13.782C46.2142 13.782 47.0237 13.459 47.6685 12.8129C48.3132 12.1525 48.6356 11.3271 48.6356 10.3365C48.6356 9.34589 48.3132 8.52759 47.6685 7.88156C47.0237 7.22118 46.2142 6.89098 45.2399 6.89098C44.2657 6.89098 43.4561 7.22118 42.8114 7.88156C42.1667 8.52759 41.8443 9.34589 41.8443 10.3365C41.8443 11.3271 42.1667 12.1525 42.8114 12.8129Z" fill="black"/>
<path d="M60.9476 4.95289H63.4836L59.2928 15.7201H56.6064L52.4155 4.95289H54.9515L57.9603 13.1359L60.9476 4.95289Z" fill="black"/>
<path d="M66.3605 11.3271C66.5324 12.1454 66.9264 12.777 67.5425 13.2221C68.1586 13.6528 68.9108 13.8681 69.7991 13.8681C71.0313 13.8681 71.9554 13.4231 72.5715 12.533L74.4842 13.6528C73.424 15.2176 71.8551 16 69.7776 16C68.0296 16 66.6183 15.4688 65.5438 14.4065C64.4692 13.3297 63.9319 11.9731 63.9319 10.3365C63.9319 8.72858 64.462 7.38627 65.5223 6.30956C66.5825 5.21848 67.9437 4.67295 69.6057 4.67295C71.1817 4.67295 72.4712 5.22566 73.4741 6.33109C74.4914 7.43652 75 8.77882 75 10.358C75 10.6021 74.9714 10.9251 74.914 11.3271H66.3605ZM66.339 9.43203H72.6574C72.4998 8.5563 72.1345 7.89592 71.5614 7.45088C71.0026 7.00583 70.3435 6.78331 69.5842 6.78331C68.7245 6.78331 68.0081 7.02019 67.435 7.49394C66.8619 7.9677 66.4966 8.61373 66.339 9.43203Z" fill="black"/>
<path d="M79.1838 7.92463C79.1838 8.28353 79.3784 8.57065 79.7676 8.786C80.1712 8.98698 80.6541 9.16644 81.2162 9.32436C81.7928 9.46792 82.3694 9.64019 82.946 9.84118C83.5225 10.0422 84.0054 10.3867 84.3946 10.8748C84.7982 11.3486 85 11.9515 85 12.6837C85 13.7174 84.5964 14.5285 83.7892 15.1171C82.9964 15.7057 81.9946 16 80.7838 16C79.7171 16 78.8018 15.7775 78.0379 15.3324C77.2739 14.8874 76.7189 14.2701 76.373 13.4805L78.3838 12.3176C78.7586 13.3513 79.5586 13.8681 80.7838 13.8681C82.009 13.8681 82.6216 13.4661 82.6216 12.6622C82.6216 12.3176 82.4198 12.0377 82.0162 11.8223C81.627 11.607 81.1442 11.4275 80.5676 11.284C80.0054 11.1261 79.4361 10.9466 78.8595 10.7456C78.2829 10.5446 77.7928 10.2144 77.3892 9.75504C77 9.28129 76.8054 8.6855 76.8054 7.96769C76.8054 6.97712 77.1802 6.18035 77.9298 5.57738C78.6937 4.97442 79.6379 4.67294 80.7622 4.67294C81.6559 4.67294 82.4487 4.87393 83.1405 5.2759C83.8469 5.66352 84.3874 6.20906 84.7622 6.91251L82.7946 8.01076C82.4198 7.19246 81.7424 6.78331 80.7622 6.78331C80.3153 6.78331 79.9406 6.8838 79.6379 7.08479C79.3352 7.27142 79.1838 7.55136 79.1838 7.92463Z" fill="black"/>
</svg>
