<svg width="115" height="20" viewBox="0 0 115 20" fill="none" xmlns="http://www.w3.org/2000/svg">
<path d="M16.3429 0H6.80952L0 3.57713V20H11.3143V12.8358H22V3.57713H16.3429V0Z" fill="#FF7979"/>
<path d="M32.4715 15.3513H39.1339V17.7201H30V2.64603H39.0264V5.0148H32.4715V8.93405H38.4891V11.2813H32.4715V15.3513Z" fill="black"/>
<path d="M46.8981 6.67295C48.1303 6.67295 49.1261 7.06774 49.8854 7.85733C50.6448 8.64693 51.0245 9.73082 51.0245 11.109V17.7201H48.7034V11.3459C48.7034 10.5419 48.4885 9.92463 48.0587 9.49394C47.6288 9.06326 47.0414 8.84791 46.2964 8.84791C45.4797 8.84791 44.8206 9.10633 44.3192 9.62315C43.8177 10.1256 43.567 10.9009 43.567 11.9489V17.7201H41.2459V6.95289H43.567V8.33109C44.269 7.22566 45.3794 6.67295 46.8981 6.67295Z" fill="black"/>
<path d="M58.5957 18C56.9767 18 55.6227 17.4545 54.5338 16.3634C53.4592 15.2723 52.9219 13.93 52.9219 12.3365C52.9219 10.7286 53.4592 9.38627 54.5338 8.30956C55.6227 7.21848 56.9767 6.67295 58.5957 6.67295C59.6416 6.67295 60.5944 6.92418 61.454 7.42665C62.3137 7.92912 62.9584 8.60386 63.3883 9.45088L61.3896 10.6137C61.146 10.0969 60.7735 9.69493 60.272 9.40781C59.7849 9.10633 59.2189 8.95559 58.5742 8.95559C57.6286 8.95559 56.8334 9.2786 56.1886 9.92463C55.5582 10.5707 55.243 11.3746 55.243 12.3365C55.243 13.2983 55.5582 14.1023 56.1886 14.7483C56.8334 15.3943 57.6286 15.7174 58.5742 15.7174C59.2046 15.7174 59.7705 15.5666 60.272 15.2651C60.7878 14.9637 61.1746 14.5617 61.4325 14.0592L63.4312 15.2005C62.9728 16.0619 62.3137 16.7438 61.454 17.2463C60.5944 17.7488 59.6416 18 58.5957 18Z" fill="black"/>
<path d="M65.1089 17.7201V2H67.43V17.7201H65.1089Z" fill="black"/>
<path d="M78.6356 6.95289H80.9566V17.7201H78.6356V16.1696C77.7616 17.3899 76.5079 18 74.8746 18C73.3988 18 72.138 17.4545 71.0921 16.3634C70.0462 15.258 69.5232 13.9157 69.5232 12.3365C69.5232 10.7429 70.0462 9.40063 71.0921 8.30956C72.138 7.21848 73.3988 6.67295 74.8746 6.67295C76.5079 6.67295 77.7616 7.27591 78.6356 8.48183V6.95289ZM72.8114 14.8129C73.4561 15.459 74.2657 15.782 75.2399 15.782C76.2142 15.782 77.0237 15.459 77.6685 14.8129C78.3132 14.1525 78.6356 13.3271 78.6356 12.3365C78.6356 11.3459 78.3132 10.5276 77.6685 9.88156C77.0237 9.22118 76.2142 8.89098 75.2399 8.89098C74.2657 8.89098 73.4561 9.22118 72.8114 9.88156C72.1667 10.5276 71.8443 11.3459 71.8443 12.3365C71.8443 13.3271 72.1667 14.1525 72.8114 14.8129Z" fill="black"/>
<path d="M90.9476 6.95289H93.4836L89.2928 17.7201H86.6064L82.4155 6.95289H84.9515L87.9603 15.1359L90.9476 6.95289Z" fill="black"/>
<path d="M96.3605 13.3271C96.5324 14.1454 96.9264 14.777 97.5425 15.2221C98.1586 15.6528 98.9108 15.8681 99.7991 15.8681C101.031 15.8681 101.955 15.4231 102.571 14.533L104.484 15.6528C103.424 17.2176 101.855 18 99.7776 18C98.0296 18 96.6183 17.4688 95.5438 16.4065C94.4692 15.3297 93.9319 13.9731 93.9319 12.3365C93.9319 10.7286 94.462 9.38627 95.5223 8.30956C96.5825 7.21848 97.9437 6.67295 99.6057 6.67295C101.182 6.67295 102.471 7.22566 103.474 8.33109C104.491 9.43652 105 10.7788 105 12.358C105 12.6021 104.971 12.9251 104.914 13.3271H96.3605ZM96.339 11.432H102.657C102.5 10.5563 102.134 9.89592 101.561 9.45088C101.003 9.00583 100.344 8.78331 99.5842 8.78331C98.7245 8.78331 98.0081 9.02019 97.435 9.49394C96.8619 9.9677 96.4966 10.6137 96.339 11.432Z" fill="black"/>
<path d="M109.184 9.92463C109.184 10.2835 109.378 10.5707 109.768 10.786C110.171 10.987 110.654 11.1664 111.216 11.3244C111.793 11.4679 112.369 11.6402 112.946 11.8412C113.523 12.0422 114.005 12.3867 114.395 12.8748C114.798 13.3486 115 13.9515 115 14.6837C115 15.7174 114.596 16.5285 113.789 17.1171C112.996 17.7057 111.995 18 110.784 18C109.717 18 108.802 17.7775 108.038 17.3324C107.274 16.8874 106.719 16.2701 106.373 15.4805L108.384 14.3176C108.759 15.3513 109.559 15.8681 110.784 15.8681C112.009 15.8681 112.622 15.4661 112.622 14.6622C112.622 14.3176 112.42 14.0377 112.016 13.8223C111.627 13.607 111.144 13.4275 110.568 13.284C110.005 13.1261 109.436 12.9466 108.859 12.7456C108.283 12.5446 107.793 12.2144 107.389 11.755C107 11.2813 106.805 10.6855 106.805 9.96769C106.805 8.97712 107.18 8.18035 107.93 7.57738C108.694 6.97442 109.638 6.67294 110.762 6.67294C111.656 6.67294 112.449 6.87393 113.141 7.2759C113.847 7.66352 114.387 8.20906 114.762 8.91251L112.795 10.0108C112.42 9.19246 111.742 8.78331 110.762 8.78331C110.315 8.78331 109.941 8.8838 109.638 9.08479C109.335 9.27142 109.184 9.55136 109.184 9.92463Z" fill="black"/>
</svg>
